<?xml version="1.0" encoding="UTF-8" standalone="no"?>
<!-- Created with Inkscape (http://www.inkscape.org/) -->

<svg id="Layer_1" data-name="Layer 1" xmlns="http://www.w3.org/2000/svg" xmlns:xlink="http://www.w3.org/1999/xlink"
   viewBox="0 0 1489.76 1444.28">
   <defs>
      <style>
         .cls-1 {
            fill: none;
         }

         .cls-2 {
            clip-path: url(#clip-path);
         }

         .cls-3 {
            fill: #0085ff;
         }

         .cls-4 {
            fill: #fff;
         }
      </style>
      <clipPath id="clip-path" transform="translate(-279.12 -301.86)">
         <rect class="cls-1" x="279.12" y="301.86" width="1489.76" height="1444.28" />
      </clipPath>
   </defs>
   <title>outline_logo</title>
   <g class="cls-2">
      <path class="cls-3"
         d="M1760.38,1008.27a8.2,8.2,0,0,1-.6-.76l-694.5-688.15c-1.27.14-2.65-.38-4.16-1.87q-1.9-1.89-3.95-3.55c-.47-.38-1-.71-1.43-1.07-.92-.69-1.84-1.39-2.79-2-.59-.38-1.21-.73-1.81-1.1-.87-.52-1.72-1.05-2.61-1.53-.67-.36-1.37-.67-2-1-.84-.41-1.68-.82-2.55-1.18s-1.48-.57-2.22-.85-1.67-.6-2.51-.86-1.59-.46-2.39-.67-1.62-.42-2.44-.59-1.68-.34-2.53-.48-1.56-.24-2.36-.34-1.77-.19-2.66-.25-1.49-.08-2.25-.11c-.93,0-1.86,0-2.79,0-.7,0-1.39.06-2.09.1-1,.06-2,.12-2.93.24-.64.07-1.26.17-1.89.26-1,.16-2.06.31-3.08.53-.53.11-1.06.25-1.59.38-1.1.27-2.21.53-3.3.87l-1.09.38a53.76,53.76,0,0,0-21.06,12.86h.53L283.17,1013.16a26.53,26.53,0,0,0,3.82,33,27.07,27.07,0,0,0,19.52,7.84.29.29,0,0,1,.28.15H423.1a39.35,39.35,0,0,1,39.35,39.35v311.61a51.5,51.5,0,0,0,51.49,51.5l191.91,2.52c22,0,88.66,82.25,104.19,97.78L989.19,1736a57.11,57.11,0,0,0,72.82-6.61,6.62,6.62,0,0,1,3.2-1.63l170.92-170.91c15.53-15.53,81.54-97.78,103.5-97.78l199.47-2.52a51.5,51.5,0,0,0,51.5-51.5V1091.76a37.64,37.64,0,0,1,37.64-37.64h114a1.08,1.08,0,0,1,.6-.19c10.71-.63,21.12-7.54,25.1-20.73,2.71-9-1-18.25-7.61-24.93"
         transform="translate(-279.12 -301.86)" />
      <path class="cls-4"
         d="M1511.62,1229.84a138.81,138.81,0,0,0-25-14q-13.71-6-40-13.82-24-7.14-34.2-11.52a68.78,68.78,0,0,1-17.39-10.36,47.59,47.59,0,0,1-12-17.73,60.25,60.25,0,0,1-4.38-22.81q0-26.47,17-43.64t43.3-17.16q26.48,0,43.42,17t18.77,45.38h36.38q-.92-42.39-27.86-68.41t-69.79-26q-42.15,0-69.44,26.38t-27.29,67.37a94.18,94.18,0,0,0,6.44,34.66,72.22,72.22,0,0,0,18.2,27.29,88.21,88.21,0,0,0,22.45,15.78q12.09,5.86,42.5,15.31,37.53,11.06,54.35,22.58,23.5,16.82,23.5,50,0,30.18-19.47,49.75t-49.4,19.57a76.09,76.09,0,0,1-31-6.44,63.9,63.9,0,0,1-24.07-18,67.54,67.54,0,0,1-11.86-19.92q-4-10.72-5.64-27.3H1332q2.54,47,32.24,75.43t76.7,28.45q45.38,0,75.31-29.48t30-73.94a99.43,99.43,0,0,0-9.1-42.38,83.92,83.92,0,0,0-25.45-32m-204.07-65.18q0-31.79-12.78-55.74a96.25,96.25,0,0,0-37.2-38.24q-32-17.72-100.18-17.73h-86.15v348.48H1106V1084.51h49.06q53.43,0,80.16,12.66a60.56,60.56,0,0,1,27.29,25.8q9.56,17.28,9.56,41.23,0,57.58-50.45,72.55-24,6.68-80.15,6.68l117.47,158h43.3L1204.6,1271.3q50.2-5.29,76.58-32.59t26.37-74M884.72,814.83a18,18,0,1,0,18-18,18,18,0,0,0-18,18M1282.86,831V756.54a36.11,36.11,0,0,0-36.11-36.11h-25V867.1h25a36.11,36.11,0,0,0,36.11-36.1M779.37,756.54V831a36.1,36.1,0,0,0,36.1,36.1h8.44V720.43h-8.44a36.11,36.11,0,0,0-36.1,36.11m391.17,58.3a17,17,0,1,0-17,17,17,17,0,0,0,17-17m25,639.94a.53.53,0,0,1-.44-.14H854.43a.88.88,0,0,1-.58.15,22.42,22.42,0,0,0-16.26,38.15L997.9,1653.26a44.85,44.85,0,0,0,57.18-5.19,5.15,5.15,0,0,1,2.51-1.28l154.35-154.35a22.39,22.39,0,0,0-16.39-37.66m440.51-475.63a5.3,5.3,0,0,1-.52-.66l-577-577a4.24,4.24,0,0,1-3.45-1.57q-1.59-1.59-3.29-3c-.38-.31-.79-.59-1.19-.89-.76-.58-1.52-1.17-2.31-1.7-.49-.33-1-.62-1.5-.92-.72-.45-1.44-.89-2.18-1.29-.55-.3-1.13-.56-1.7-.83s-1.4-.69-2.12-1-1.23-.48-1.84-.71-1.39-.51-2.09-.73-1.32-.38-2-.56-1.35-.35-2-.49-1.39-.28-2.1-.4-1.3-.2-2-.28-1.47-.17-2.21-.22l-1.86-.09c-.78,0-1.55,0-2.33,0-.58,0-1.16,0-1.73.08-.82,0-1.63.1-2.44.2-.53,0-1,.14-1.57.22-.85.13-1.71.26-2.56.44-.44.09-.88.21-1.32.32-.92.22-1.83.45-2.74.73-.31.1-.6.21-.9.32a44.57,44.57,0,0,0-17.5,10.78h.44L408.74,983.23a22.4,22.4,0,0,0,19.39,34.22.26.26,0,0,1,.24.13h394a37.41,37.41,0,0,1,37.2-33.74H972.87V927.21H861.34a37.43,37.43,0,0,1-37.43-37.43V885H806.14a44.9,44.9,0,0,1-44.91-44.91V747.44a44.91,44.91,0,0,1,44.91-44.91h17.77v-11.6a37.43,37.43,0,0,1,37.43-37.43h323a37.43,37.43,0,0,1,37.43,37.43v11.6h34.33A44.92,44.92,0,0,1,1301,747.44v92.65A44.91,44.91,0,0,1,1256.08,885h-34.33v4.78a37.43,37.43,0,0,1-37.43,37.43H1068.44v56.63h114.1a37.4,37.4,0,0,1,37.2,33.74H1621a.79.79,0,0,1,.5-.17,22.43,22.43,0,0,0,14.55-38.26"
         transform="translate(-279.12 -301.86)" />
   </g>
   <rect class="cls-4" x="279.89" y="751.09" width="64.72" height="348.48" />
   <g class="cls-2">
      <path class="cls-4"
         d="M901.15,1335.79q-19.92,9.43-45,9.44a112.86,112.86,0,0,1-58.73-16,119.27,119.27,0,0,1-58.27-102.84,123.94,123.94,0,0,1,7.71-42.61,116,116,0,0,1,21.08-36.62q32.25-38.22,86.84-38.23,30.39,0,52,10.48t39.39,33.51h72.32q-9.9-21.89-20-35.7t-26.72-28.1a178.35,178.35,0,0,0-54.93-31.44,186.69,186.69,0,0,0-63.45-10.94A174.08,174.08,0,0,0,783.8,1061a176.9,176.9,0,0,0-95.35,95.36,174,174,0,0,0-14.28,69.55,178.72,178.72,0,0,0,53.55,128.64,187.5,187.5,0,0,0,37,28.45,178.72,178.72,0,0,0,43.87,18.19,187,187,0,0,0,49,6.45q53.65,0,97.08-27.87t63.91-75.55h-76q-21.4,22.11-41.34,31.56"
         transform="translate(-279.12 -301.86)" />
   </g>
</svg>
