<?xml version="1.0" encoding="UTF-8" standalone="no"?>
<!-- Generator: Adobe Illustrator 15.0.0, SVG Export Plug-In . SVG Version: 6.00 Build 0)  -->

<svg
   version="1.1"
   x="0px"
   y="0px"
   width="336.12411"
   height="346.20898"
   viewBox="0 0 336.12411 346.20898"
   enable-background="new 0 0 800 600"
   xml:space="preserve"
   id="svg14"
   sodipodi:docname="logo.svg"
   inkscape:version="1.2.2 (b0a8486541, 2022-12-01)"
   xmlns:inkscape="http://www.inkscape.org/namespaces/inkscape"
   xmlns:sodipodi="http://sodipodi.sourceforge.net/DTD/sodipodi-0.dtd"
   xmlns="http://www.w3.org/2000/svg"
   xmlns:svg="http://www.w3.org/2000/svg"><defs
   id="defs18" /><sodipodi:namedview
   id="namedview16"
   pagecolor="#ffffff"
   bordercolor="#000000"
   borderopacity="0.25"
   inkscape:showpageshadow="2"
   inkscape:pageopacity="0.0"
   inkscape:pagecheckerboard="0"
   inkscape:deskcolor="#d1d1d1"
   showgrid="false"
   inkscape:zoom="1.4083333"
   inkscape:cx="113.60947"
   inkscape:cy="91.597633"
   inkscape:window-width="1920"
   inkscape:window-height="1011"
   inkscape:window-x="0"
   inkscape:window-y="32"
   inkscape:window-maximized="1"
   inkscape:current-layer="svg14" />
<g
   id="Layer_1"
   transform="translate(-232.33313,-126.61118)">
	<g
   id="g6">
		<g
   id="g4">
			<path
   fill="#0084ff"
   d="m 440.206,242.894 c 0,-2.547 -2.064,-4.61 -4.61,-4.61 -2.547,0 -4.611,2.063 -4.611,4.61 0,2.546 2.064,4.61 4.611,4.61 2.546,0 4.61,-2.065 4.61,-4.61 z m 126.466,44.637 c -0.068,-0.068 -0.092,-0.119 -0.14,-0.18 L 409.777,130.597 c -0.288,0.033 -0.598,-0.086 -0.938,-0.426 -0.287,-0.288 -0.587,-0.556 -0.895,-0.809 -0.104,-0.085 -0.215,-0.16 -0.322,-0.242 -0.207,-0.159 -0.414,-0.318 -0.629,-0.462 -0.134,-0.089 -0.272,-0.167 -0.408,-0.251 -0.195,-0.12 -0.39,-0.241 -0.59,-0.349 -0.152,-0.082 -0.308,-0.153 -0.462,-0.228 -0.19,-0.092 -0.381,-0.186 -0.576,-0.267 -0.166,-0.07 -0.334,-0.131 -0.502,-0.193 -0.188,-0.069 -0.376,-0.138 -0.565,-0.198 -0.179,-0.056 -0.358,-0.104 -0.538,-0.152 -0.184,-0.048 -0.367,-0.095 -0.552,-0.135 -0.189,-0.041 -0.38,-0.076 -0.57,-0.107 -0.178,-0.029 -0.354,-0.055 -0.533,-0.077 -0.2,-0.024 -0.4,-0.044 -0.601,-0.059 -0.169,-0.012 -0.338,-0.019 -0.507,-0.024 -0.211,-0.006 -0.421,-0.009 -0.631,-0.005 -0.158,0.003 -0.314,0.013 -0.472,0.022 -0.222,0.013 -0.442,0.028 -0.662,0.054 -0.143,0.017 -0.283,0.04 -0.425,0.062 -0.233,0.035 -0.466,0.071 -0.697,0.12 -0.12,0.025 -0.238,0.058 -0.357,0.087 -0.25,0.061 -0.499,0.122 -0.745,0.198 -0.083,0.026 -0.163,0.059 -0.245,0.086 -1.736,0.58 -3.371,1.547 -4.754,2.93 h 0.118 l -158.471,158.47 c -1.456,2.352 -1.178,5.471 0.862,7.51 1.214,1.215 2.813,1.81 4.405,1.785 0.036,-0.001 0.051,0.017 0.064,0.035 h 107.026 c 0.506,-5.143 4.83,-9.165 10.105,-9.165 h 30.792 V 273.42 h -30.299 c -5.615,0 -10.168,-4.553 -10.168,-10.168 v -1.297 h -4.828 c -6.738,0 -12.201,-5.463 -12.201,-12.202 v -25.168 c 0,-6.739 5.463,-12.202 12.201,-12.202 h 4.828 v -3.152 c 0,-5.616 4.553,-10.168 10.168,-10.168 h 87.742 c 5.616,0 10.169,4.552 10.169,10.168 v 3.152 h 9.328 c 6.739,0 12.202,5.463 12.202,12.202 v 25.168 c 0,6.739 -5.463,12.202 -12.202,12.202 h -9.328 v 1.297 c 0,5.615 -4.553,10.168 -10.169,10.168 h -31.478 v 15.386 h 30.995 c 5.275,0 9.6,4.022 10.105,9.165 H 562.58 c 0.033,-0.02 0.062,-0.041 0.135,-0.045 1.439,-0.084 2.854,-0.676 3.953,-1.775 2.385,-2.38 2.385,-6.239 0.004,-8.62 z M 446.999,416.746 c -0.074,0 -0.099,-0.02 -0.12,-0.04 h -92.55 c -0.031,0.024 -0.075,0.042 -0.158,0.041 -1.585,-0.02 -3.176,0.575 -4.386,1.784 -2.368,2.368 -2.376,6.197 -0.031,8.58 l 43.553,43.554 c 4.75,3.282 11.306,2.818 15.533,-1.409 0.186,-0.186 0.423,-0.287 0.683,-0.35 l 41.932,-41.931 c 2.219,-2.391 2.182,-6.118 -0.144,-8.444 -1.191,-1.19 -2.751,-1.785 -4.312,-1.785 z M 333.938,227.054 v 20.23 c 0,5.417 4.391,9.808 9.808,9.808 h 2.293 v -39.845 h -2.293 c -5.418,0 -9.808,4.391 -9.808,9.807 z m 136.781,20.23 v -20.23 c 0,-5.417 -4.392,-9.808 -9.809,-9.808 h -6.793 v 39.845 h 6.793 c 5.417,10e-4 9.809,-4.39 9.809,-9.807 z m -108.16,-4.391 c 0,2.695 2.185,4.88 4.879,4.88 2.695,0 4.88,-2.185 4.88,-4.88 0,-2.693 -2.185,-4.879 -4.88,-4.879 -2.695,0 -4.879,2.185 -4.879,4.879 z m 114.869,95.035 c 0,-5.756 -1.157,-10.803 -3.473,-15.142 -2.314,-4.338 -5.684,-7.8 -10.104,-10.388 -5.799,-3.211 -14.872,-4.817 -27.219,-4.817 H 413.23 v 94.67 h 9.448 v -86.098 h 13.327 c 9.678,0 16.936,1.147 21.775,3.441 3.211,1.544 5.683,3.88 7.414,7.009 1.73,3.128 2.597,6.861 2.597,11.199 0,10.43 -4.567,16.999 -13.703,19.71 -4.339,1.21 -11.597,1.814 -21.774,1.814 l 31.911,42.924 h 11.764 l -26.53,-35.353 c 9.093,-0.959 16.028,-3.91 20.805,-8.854 4.777,-4.944 7.164,-11.647 7.164,-20.115 z m 55.438,17.708 c -2.045,-1.46 -4.308,-2.731 -6.789,-3.817 -2.482,-1.084 -6.101,-2.335 -10.856,-3.754 -4.339,-1.293 -7.436,-2.336 -9.291,-3.129 -1.857,-0.791 -3.432,-1.73 -4.725,-2.814 -1.377,-1.252 -2.462,-2.857 -3.254,-4.818 -0.793,-1.961 -1.188,-4.025 -1.188,-6.195 0,-4.796 1.543,-8.748 4.63,-11.856 3.087,-3.107 7.008,-4.662 11.764,-4.662 4.796,0 8.729,1.544 11.795,4.63 3.065,3.088 4.765,7.196 5.1,12.327 h 9.886 c -0.167,-7.675 -2.69,-13.869 -7.571,-18.583 -4.881,-4.714 -11.2,-7.071 -18.959,-7.071 -7.634,0 -13.922,2.389 -18.865,7.165 -4.942,4.776 -7.414,10.877 -7.414,18.302 0,3.296 0.583,6.435 1.752,9.417 1.167,2.982 2.815,5.454 4.942,7.414 1.878,1.795 3.911,3.223 6.101,4.287 2.19,1.062 6.039,2.45 11.545,4.16 6.799,2.002 11.721,4.047 14.767,6.132 4.255,3.046 6.382,7.571 6.382,13.578 0,5.466 -1.763,9.97 -5.287,13.515 -3.525,3.547 -7.999,5.319 -13.421,5.319 -2.963,0 -5.768,-0.584 -8.416,-1.752 -2.649,-1.167 -4.829,-2.794 -6.539,-4.881 -1.418,-1.668 -2.493,-3.473 -3.222,-5.412 -0.73,-1.94 -1.242,-4.411 -1.533,-7.415 h -10.137 c 0.459,8.51 3.379,15.341 8.76,20.492 5.381,5.152 12.327,7.728 20.836,7.728 8.218,0 15.038,-2.669 20.461,-8.009 5.422,-5.34 8.135,-12.034 8.135,-20.086 0,-4.129 -0.824,-7.967 -2.472,-11.513 -1.651,-3.547 -3.956,-6.446 -6.917,-8.699 z"
   id="path2" />
		</g>
	</g>
</g>
<g
   id="Layer_2"
   transform="translate(-232.33313,-126.61118)">
	<path
   fill="#666666"
   d="m 291.655,402.251 v -94.67 h -17.583 v 94.67 0 0 0 0 z"
   id="path9" />
	<path
   fill="#666666"
   d="m 367.021,384.418 c -3.608,1.711 -7.687,2.566 -12.232,2.566 -5.757,0 -11.075,-1.449 -15.955,-4.35 -4.881,-2.898 -8.74,-6.83 -11.576,-11.795 -2.837,-4.963 -4.255,-10.344 -4.255,-16.143 0,-3.879 0.698,-7.737 2.096,-11.576 1.397,-3.837 3.306,-7.153 5.726,-9.948 5.84,-6.924 13.703,-10.387 23.59,-10.387 5.506,0 10.219,0.949 14.141,2.847 3.92,1.898 7.487,4.934 10.699,9.104 h 19.647 c -1.794,-3.962 -3.608,-7.195 -5.443,-9.697 -1.836,-2.504 -4.255,-5.047 -7.259,-7.635 -4.422,-3.712 -9.396,-6.559 -14.923,-8.541 -5.527,-1.98 -11.273,-2.972 -17.238,-2.972 -6.592,0 -12.89,1.294 -18.896,3.88 -6.006,2.586 -11.18,6.049 -15.518,10.387 -4.339,4.339 -7.801,9.511 -10.387,15.518 -2.587,6.007 -3.879,12.306 -3.879,18.896 0,4.505 0.594,8.896 1.783,13.171 1.188,4.276 2.847,8.218 4.974,11.826 2.128,3.608 4.725,6.925 7.79,9.948 3.066,3.025 6.414,5.601 10.043,7.729 3.629,2.127 7.603,3.775 11.92,4.942 4.317,1.167 8.749,1.752 13.296,1.752 9.72,0 18.511,-2.523 26.374,-7.571 7.862,-5.047 13.65,-11.889 17.363,-20.523 h -20.648 v 0 c -3.88,4.005 -7.625,6.863 -11.233,8.572 z"
   id="path11" />
</g>
</svg>
